<svg width="25" height="25" viewBox="0 0 25 25" fill="none" xmlns="http://www.w3.org/2000/svg">
<path fill-rule="evenodd" clip-rule="evenodd" d="M22.413 21.0082H2.58696C1.43443 21.0082 0.5 20.1127 0.5 19.0082V5.00818C0.5 3.90368 1.43443 3.00818 2.58696 3.00818H22.413C23.5656 3.00818 24.5 3.90368 24.5 5.00818V19.0082C24.5 20.1127 23.5656 21.0082 22.413 21.0082ZM6.23913 4.00818H2.58696C2.01096 4.00818 1.54348 4.45618 1.54348 5.00818V6.00818H6.23913V4.00818ZM11.9783 4.00818H7.28261V6.00818H11.9783V4.00818ZM17.7174 4.00818H13.0217V6.00818H17.7174V4.00818ZM23.4565 5.00818C23.4565 4.45618 22.989 4.00818 22.413 4.00818H18.7609V6.00818H23.4565V5.00818ZM23.4565 7.00818H1.54348V17.0082H23.4565V7.00818ZM23.4565 18.0082H18.7609V20.0082H17.7174V18.0082H13.0217V20.0082H11.9783V18.0082H7.28261V20.0082H6.23913V18.0082H1.54348V19.0082C1.54348 19.5602 2.01096 20.0082 2.58696 20.0082H22.413C22.989 20.0082 23.4565 19.5602 23.4565 19.0082V18.0082ZM11.2588 14.8907C11.169 14.9602 11.059 15.0082 10.9348 15.0082C10.6463 15.0082 10.413 14.7847 10.413 14.5082V9.50818C10.413 9.23218 10.6463 9.00818 10.9348 9.00818C11.0459 9.00818 11.1435 9.04918 11.2285 9.10618L15.283 11.5422C15.4843 11.6107 15.6304 11.7912 15.6304 12.0082C15.6304 12.1707 15.5443 12.3087 15.4191 12.3997L11.2588 14.8907Z" fill="white"/>
</svg>
